<svg width="584" height="488" viewBox="0 0 584 488" fill="none" xmlns="http://www.w3.org/2000/svg">
<mask id="mask0_1_5" style="mask-type:luminance" maskUnits="userSpaceOnUse" x="0" y="0" width="584" height="488">
<path d="M290.093 470.121L29.1816 387.7L222.47 104.663L7.9043 394.042L290.047 481.472L290.093 470.121ZM290.139 453.554L57.0535 379.176L231.224 100.113L36.8102 385.081L290.116 465.089L290.139 453.554ZM294.941 455.093L294.895 466.605L315.805 473.2L315.207 461.55L294.941 455.093ZM290.208 436.895L84.6267 370.766L239.45 95.8394L64.4064 376.487L290.162 448.522L290.208 436.895ZM340.253 452.979L319.229 446.224L319.826 457.989L341.54 464.928L340.253 452.979ZM294.987 438.435L294.941 450.061L314.932 456.449L314.334 444.662L294.987 438.435ZM290.277 420.19L111.763 362.471L247.469 91.6575L91.6579 368.008L290.208 431.863L290.277 420.19ZM338.392 435.746L318.355 429.267L318.953 441.1L339.679 447.764L338.392 435.746ZM365.207 444.409L343.378 437.355L344.688 449.372L367.252 456.633L365.207 444.409ZM295.056 421.73L295.01 433.38L314.082 439.515L313.484 427.681L295.056 421.73ZM290.323 403.21L139.52 353.992L254.776 87.8432L118.519 359.622L290.254 415.135L290.323 403.21ZM336.508 418.26L317.482 412.056L318.103 424.12L337.84 430.507L336.508 418.26ZM362.243 426.67L341.494 419.892L342.827 432.116L364.334 439.055L362.243 426.67ZM390.069 435.746L367.39 428.348L369.458 440.732L392.941 448.315L390.069 435.746ZM295.102 404.773L295.056 416.698L313.185 422.557L312.565 410.471L295.102 404.773ZM290.392 386.62L165.692 345.996L261.968 84.0979L146.023 351.051L290.346 398.132L290.392 386.62ZM334.646 401.05L316.609 395.168L317.207 406.909L335.933 413.022L334.646 401.05ZM359.325 409.092L339.656 402.682L340.942 414.653L361.37 421.316L359.325 409.092ZM385.979 417.755L364.472 410.747L366.517 422.994L388.828 430.278L385.979 417.755ZM414.861 427.153L391.286 419.478L394.136 432.001L418.584 439.974L414.861 427.153ZM295.171 388.183L295.125 399.695L312.312 405.301L311.715 393.56L295.171 388.183ZM290.438 370.076L191.886 338.023L268.471 80.7202L171.942 342.986L290.415 381.588L290.438 370.076ZM332.785 383.84L315.736 378.302L316.333 390.021L334.072 395.788L332.785 383.84ZM356.383 391.515L337.771 385.471L339.058 397.42L358.405 403.716L356.383 391.515ZM381.889 399.809L361.53 393.192L363.575 405.393L384.738 412.286L381.889 399.809ZM409.508 408.794L387.196 401.533L390.046 414.01L413.23 421.569L409.508 408.794ZM439.517 418.559L415.022 410.586L418.745 423.384L444.204 431.679L439.517 418.559ZM295.217 371.639L295.171 383.151L311.439 388.458L310.842 376.74L295.217 371.639ZM290.506 353.579L218.035 330.027L275.111 77.2276L197.815 334.898L290.461 365.021L290.506 353.579ZM330.924 366.699L314.863 361.483L315.46 373.133L332.188 378.578L330.924 366.699ZM353.465 374.029L335.933 368.33L337.22 380.233L355.487 386.184L353.465 374.029ZM377.799 381.933L358.612 375.706L360.634 387.861L380.625 394.364L377.799 381.933ZM404.177 390.481L383.129 383.656L385.956 396.087L407.876 403.21L404.177 390.481ZM432.807 399.763L409.669 392.25L413.368 404.979L437.449 412.815L432.807 399.763ZM464.057 409.897L438.574 401.625L443.239 414.699L469.755 423.315L464.057 409.897ZM295.286 355.141L295.24 366.584L310.589 371.57L309.992 359.92L295.286 355.141ZM290.552 337.333L243.724 322.191L280.925 74.2175L223.664 326.833L290.506 348.523L290.552 337.333ZM329.086 349.787L314.013 344.916L314.61 356.336L330.35 361.437L329.086 349.787ZM350.57 356.727L334.095 351.396L335.359 363.045L352.569 368.629L350.57 356.727ZM373.777 364.217L355.717 358.381L357.716 370.306L376.558 376.418L373.777 364.217ZM398.892 372.328L379.085 365.941L381.866 378.165L402.546 384.874L398.892 372.328ZM426.167 381.129L404.407 374.098L408.06 386.643L430.785 394.019L426.167 381.129ZM455.923 390.733L431.934 382.99L436.552 395.903L461.575 404.037L455.923 390.733ZM488.482 401.257L461.943 392.686L467.595 405.99L495.283 414.975L488.482 401.257ZM295.332 338.896L295.286 350.086L309.716 354.773L309.141 343.377L295.332 338.896ZM291.495 68.7029L272.607 311.53L290.621 317.251L291.495 68.7029ZM290.598 322.283L267.506 314.953L286.462 71.3223L249.101 318.882L290.575 332.278L290.598 322.283ZM327.386 333.956L313.231 329.475L313.76 339.792L328.534 344.571L327.386 333.956ZM347.859 340.458L332.395 335.541L333.544 346.157L349.697 351.373L347.859 340.458ZM369.94 347.467L352.983 342.09L354.821 353.05L372.514 358.772L369.94 347.467ZM393.837 355.026L375.248 349.121L377.822 360.449L397.238 366.722L393.837 355.026ZM419.779 363.252L399.352 356.772L402.775 368.514L424.121 375.407L419.779 363.252ZM448.041 372.213L425.546 365.067L429.912 377.268L453.441 384.874L448.041 372.213ZM478.946 382.002L454.061 374.121L459.461 386.827L485.495 395.237L478.946 382.002ZM512.884 392.778L485.288 384.024L491.883 397.305L520.788 406.634L512.884 392.778ZM295.401 323.8L295.355 333.818L308.866 338.184L308.337 327.913L295.401 323.8ZM505.049 369.341L533.127 378.05L338.507 77.1357L505.049 369.341ZM473.087 359.438L498.339 367.273L333.337 77.756L473.087 359.438ZM443.974 350.408L466.768 357.462L328.397 78.5603L443.974 350.408ZM417.343 342.159L437.977 348.547L323.663 79.6632L417.343 342.159ZM392.872 334.576L411.599 340.389L318.976 80.9269L392.872 334.576ZM370.331 327.591L387.38 332.876L314.403 82.3745L370.331 327.591ZM349.49 321.134L365.046 325.96L309.946 84.2587L349.49 321.134ZM330.166 315.137L344.366 319.526L305.442 86.4186L330.166 315.137ZM312.197 309.577L325.18 313.598L300.869 88.8312L312.197 309.577ZM571.638 389.975L343.998 76.791L540.274 380.255L571.638 389.975ZM325.731 318.814L312.45 314.701L312.956 324.351L326.811 328.74L325.731 318.814ZM345.239 324.857L330.717 320.353L331.797 330.302L346.94 335.105L345.239 324.857ZM366.287 331.382L350.386 326.465L352.11 336.759L368.699 342.021L366.287 331.382ZM389.012 338.413L371.572 333.014L374.007 343.698L392.228 349.466L389.012 338.413ZM413.644 346.042L394.503 340.114L397.743 351.212L417.757 357.554L413.644 346.042ZM440.436 354.36L419.365 347.834L423.478 359.392L445.537 366.377L440.436 354.36ZM469.732 363.413L446.456 356.198L451.58 368.261L475.959 376.005L469.732 363.413ZM501.832 373.362L476.051 365.389L482.324 378.05L509.369 386.62L501.832 373.362ZM537.195 384.323L508.518 375.453L516.101 388.757L546.225 398.316L537.195 384.323ZM584 398.821L544.318 386.528L557.507 406.909L519.594 394.892L531.036 414.998L494.824 403.302L504.635 423.063L470.077 411.85L478.28 431.151L445.261 420.42L451.993 439.262L420.353 428.968L425.707 447.373L395.353 437.47L399.466 455.461L370.331 446.063L373.249 463.595L345.216 454.588L347.077 471.729L320.056 463.113L320.906 479.863L294.826 471.637L294.78 487.997L0 396.638L294.091 0L584 398.821ZM295.447 309.393L295.424 318.768L308.084 322.789L307.579 313.184L295.447 309.393ZM296.113 113.624L295.447 304.384L307.303 308.06L296.182 91.4966L296.113 113.624Z" fill="white"/>
</mask>
<g mask="url(#mask0_1_5)">
<path d="M583.99 0H0.0117493V487.976H583.99V0Z" fill="url(#paint0_linear_1_5)"/>
</g>
<defs>
<linearGradient id="paint0_linear_1_5" x1="453.261" y1="122.88" x2="-7.64766" y2="469.085" gradientUnits="userSpaceOnUse">
<stop stop-color="#F9DC01"/>
<stop offset="0.28" stop-color="#F332F6"/>
<stop offset="0.49" stop-color="#9A61F6"/>
<stop offset="0.67" stop-color="#01ADF6"/>
<stop offset="1" stop-color="#01C966"/>
</linearGradient>
</defs>
</svg>
