<svg width="565" height="217" viewBox="0 0 565 217" fill="none" xmlns="http://www.w3.org/2000/svg">
<path d="M61.43 170.3C51.4633 170.3 42.4933 167.693 34.52 162.48C26.7 157.267 20.49 150.827 15.89 143.16V216.99H0.250001V48.17H14.28V71.4C19.0333 63.8867 25.3967 57.83 33.37 53.23C41.3433 48.4767 49.8533 46.1 58.9 46.1C67.18 46.1 74.77 47.8633 81.67 51.39C88.57 54.7633 94.55 59.3633 99.61 65.19C104.67 71.0167 108.58 77.6867 111.34 85.2C114.253 92.56 115.71 100.227 115.71 108.2C115.71 119.393 113.41 129.743 108.81 139.25C104.363 148.603 98.0767 156.117 89.95 161.79C81.8233 167.463 72.3167 170.3 61.43 170.3ZM57.06 156.5C63.6533 156.5 69.5567 155.197 74.77 152.59C79.9833 149.83 84.43 146.15 88.11 141.55C91.9433 136.95 94.8567 131.813 96.85 126.14C98.8433 120.313 99.84 114.333 99.84 108.2C99.84 101.76 98.69 95.6267 96.39 89.8C94.2433 83.9733 91.1 78.8367 86.96 74.39C82.82 69.9433 78.0667 66.4167 72.7 63.81C67.3333 61.2033 61.5067 59.9 55.22 59.9C51.2333 59.9 47.0933 60.6667 42.8 62.2C38.5067 63.7333 34.3667 65.9567 30.38 68.87C26.5467 71.63 23.3267 74.7733 20.72 78.3C18.1133 81.8267 16.5033 85.5833 15.89 89.57V126.37C18.3433 132.043 21.64 137.18 25.78 141.78C29.92 146.227 34.6733 149.83 40.04 152.59C45.56 155.197 51.2333 156.5 57.06 156.5ZM202.003 61.97C191.576 62.2767 182.376 65.19 174.403 70.71C166.583 76.23 161.063 83.82 157.843 93.48V168H142.203V48.17H156.923V76.92C161.063 68.4867 166.506 61.6633 173.253 56.45C180.153 51.2367 187.436 48.3233 195.103 47.71C196.636 47.5567 197.94 47.48 199.013 47.48C200.24 47.48 201.236 47.5567 202.003 47.71V61.97ZM222.838 168V48.17H238.478V168H222.838ZM222.838 23.1V0.0999956H238.478V23.1H222.838ZM262.806 157.42L343.076 59.9H264.646V48.17H360.786V58.75L280.976 156.27H360.556V168H262.806V157.42ZM564.379 168H548.739V101.07C548.739 87.1167 546.516 76.8433 542.069 70.25C537.622 63.6567 531.029 60.36 522.289 60.36C513.242 60.36 505.116 63.58 497.909 70.02C490.856 76.46 485.872 84.74 482.959 94.86V168H467.319V101.07C467.319 86.9633 465.172 76.69 460.879 70.25C456.586 63.6567 449.992 60.36 441.099 60.36C432.206 60.36 424.156 63.5033 416.949 69.79C409.742 76.0767 404.682 84.3567 401.769 94.63V168H386.129V48.17H400.389V75.31C405.449 65.9567 411.889 58.75 419.709 53.69C427.682 48.63 436.499 46.1 446.159 46.1C456.126 46.1 464.176 48.9367 470.309 54.61C476.442 60.2833 480.199 67.72 481.579 76.92C487.099 66.8 493.692 59.1333 501.359 53.92C509.179 48.7067 517.996 46.1 527.809 46.1C534.556 46.1 540.229 47.3267 544.829 49.78C549.582 52.2333 553.339 55.76 556.099 60.36C559.012 64.8067 561.082 70.25 562.309 76.69C563.689 82.9767 564.379 90.03 564.379 97.85V168Z" fill="white"/>
</svg>
